<svg width="26" height="12" viewBox="0 0 26 12" fill="none" xmlns="http://www.w3.org/2000/svg">
<path fill-rule="evenodd" clip-rule="evenodd" d="M23.2018 3.20799L23.0498 3.12096C16.8038 -0.519043 9.18184 -0.517038 2.93884 3.12596L2.93579 3.12798C1.36579 4.07598 0.382812 5.766 0.382812 7.648V9.78697C0.382812 10.754 1.22881 11.607 2.19281 11.607H8.09784C9.06184 11.607 9.90784 10.754 9.90784 9.78697V7.92296H16.0898V9.78697C16.0898 10.754 16.9358 11.607 17.8998 11.607H23.8048C24.7688 11.607 25.6148 10.754 25.6148 9.78697V7.648C25.6148 5.763 24.7488 4.13399 23.2018 3.20799ZM2.58582 7.648C2.58582 6.556 3.1528 5.58001 4.0578 5.03301C9.5238 1.84401 16.1818 1.79599 21.6948 4.89299L21.9748 5.05296L21.9778 5.05498C22.8938 5.55798 23.4128 6.473 23.4128 7.648V9.39299H18.2928V7.054C18.2928 6.325 17.6828 5.71001 16.9548 5.71001H9.04285C8.31485 5.71001 7.70483 6.325 7.70483 7.054V9.39299H2.58582V7.648Z" fill="white"/>
</svg>
