<svg width="18" height="18" viewBox="0 0 18 18" fill="none" xmlns="http://www.w3.org/2000/svg">
<path d="M8.99927 17.8002C4.11927 17.8002 0.199219 13.8802 0.199219 9.00019C0.199219 4.12019 4.11927 0.200195 8.99927 0.200195C13.8793 0.200195 17.7993 4.12019 17.7993 9.00019C17.7993 13.8802 13.8793 17.8002 8.99927 17.8002ZM8.99927 1.8002C4.99927 1.8002 1.79926 5.00019 1.79926 9.00019C1.79926 13.0002 4.99927 16.2002 8.99927 16.2002C12.9993 16.2002 16.1992 13.0002 16.1992 9.00019C16.1992 5.00019 12.9993 1.8002 8.99927 1.8002Z" fill="white"/>
<path d="M11.8793 11.4805L8.19922 9.64055V3.56055H9.79926V8.60055L12.5192 10.0405L11.8793 11.4805Z" fill="white"/>
</svg>
