<svg width="22" height="18" viewBox="0 0 22 18" fill="none" xmlns="http://www.w3.org/2000/svg">
<path d="M21.0007 14.585C20.8007 14.585 20.6008 14.485 20.4008 14.385L15.3008 10.785L16.4008 9.185L20.0007 11.585V5.58502L16.5007 7.98498L15.4008 6.38501L20.4008 2.88501C20.7008 2.68501 21.1008 2.68497 21.4008 2.78497C21.8008 2.88497 22.0007 3.28502 22.0007 3.58502V13.585C22.0007 13.985 21.8007 14.285 21.5007 14.485C21.3007 14.485 21.2007 14.585 21.0007 14.585Z" fill="white"/>
<path fill-rule="evenodd" clip-rule="evenodd" d="M12.263 1.586H1.90002C0.800024 1.586 0 2.38602 0 3.48602V13.686C0 13.739 0.00198145 13.791 0.00598145 13.843L2 11.849V3.586H10.263L12.263 1.586ZM3.09198 13.586H14.9V3.586H13.092L15.09 1.58801C16.053 1.63401 16.9 2.41902 16.9 3.48602V13.686C16.9 14.786 16 15.586 15 15.586H1.90002C1.66402 15.586 1.43299 15.541 1.21899 15.459L3.09198 13.586Z" fill="white"/>
<path fill-rule="evenodd" clip-rule="evenodd" d="M18.092 1.414L1.82806 17.678L0.414062 16.264L16.678 0L18.092 1.414Z" fill="white"/>
</svg>
