<svg width="18" height="24" viewBox="0 0 18 24" fill="none" xmlns="http://www.w3.org/2000/svg">
<path fill-rule="evenodd" clip-rule="evenodd" d="M9.17108 0.5C10.8511 0.5 12.2611 1.62598 12.6841 3.16498L10.6271 5.22302L10.6291 4.01099C10.6291 3.21199 9.97308 2.55798 9.17108 2.55798C8.37008 2.55798 7.71405 3.21199 7.71405 4.01099V8.13501L5.52905 10.321V4.13202C5.52905 2.12202 7.15608 0.5 9.17108 0.5ZM12.8071 8.69897L17.3231 4.18298L15.9091 2.76898L0.332031 18.345L1.74603 19.76L3.80206 17.704C4.98506 18.652 6.42003 19.301 7.95703 19.529V23.5H10.386V19.529C14.369 18.948 17.6711 15.535 17.6711 11.395H15.6071C15.6071 15.026 12.5231 17.568 9.17108 17.568C7.73308 17.568 6.34405 17.1 5.22705 16.279L7.11304 14.393C7.69804 14.793 8.40708 15.026 9.17108 15.026C11.1871 15.026 12.8021 13.404 12.8021 11.395L12.8071 8.69897ZM10.6171 10.889L8.63904 12.867C8.80404 12.933 8.98408 12.968 9.17108 12.968C9.97308 12.968 10.6161 12.315 10.6161 11.516L10.6171 10.889ZM2.73608 11.395C2.73608 11.929 2.80206 12.44 2.92706 12.922L1.33203 14.517C0.908031 13.555 0.671082 12.5 0.671082 11.395H2.73608Z" fill="white"/>
</svg>
