<svg width="98" height="20" viewBox="0 0 98 20" fill="none" xmlns="http://www.w3.org/2000/svg">
<path d="M14.0125 14.6324C14.0125 16.1193 14.2121 16.8627 14.6114 16.8627C14.8509 16.8627 15.1463 16.7075 15.4976 16.3971C15.8489 16.0866 16.2003 15.7516 16.5516 15.3922C16.9029 15.0163 17.2222 14.6732 17.5097 14.3627C17.8131 14.0523 18.0207 13.8971 18.1325 13.8971C18.356 13.8971 18.4678 14.1748 18.4678 14.7304C18.4678 15.8742 17.9009 16.9853 16.7671 18.0637C15.6493 19.1422 14.4517 19.6814 13.1742 19.6814C12.3757 19.6977 11.8328 19.3464 11.5454 18.6275C11.3218 18.0556 11.21 17.1405 11.21 15.8824C10.1401 18.415 8.5512 19.6814 6.4434 19.6814C5.0222 19.6814 3.8884 19.3219 3.042 18.6029C2.2117 17.8676 1.7965 16.7157 1.7965 15.1471C1.7965 14.7712 1.9961 13.7827 2.3953 12.1814C2.8105 10.5637 3.1379 9.24019 3.3774 8.21079C3.6169 7.16499 3.7367 6.33989 3.7367 5.73529C3.7367 4.41179 3.4093 3.74999 2.7546 3.74999C2.531 3.74999 2.3234 3.81539 2.1318 3.94609C1.9562 4.07679 1.7725 4.21569 1.5809 4.36269C1.4052 4.50979 1.2216 4.64869 1.03 4.77939C0.838401 4.91009 0.614801 4.97549 0.359301 4.97549C0.119801 4.97549 0 4.75489 0 4.31369C0 3.41499 0.4072 2.67969 1.2216 2.10779C2.0041 1.51959 2.9382 1.22549 4.0241 1.22549C5.11 1.22549 5.9244 1.68299 6.4673 2.59799C6.8825 3.26799 7.0901 4.02779 7.0901 4.87749C7.0901 5.71079 7.0023 6.52779 6.8266 7.32839C6.651 8.11269 6.4593 8.92159 6.2517 9.75489C6.0601 10.5882 5.8765 11.4379 5.7008 12.3039C5.5252 13.1536 5.4373 13.8562 5.4373 14.4118C5.4373 14.951 5.4613 15.3105 5.5092 15.4902C5.7328 16.2092 6.2757 16.5686 7.138 16.5686C8.2558 16.5686 9.2299 15.8497 10.0603 14.4118C10.7629 13.2026 11.2579 11.732 11.5454 9.99999L11.6891 8.89709L11.5933 3.77449C11.5933 3.02289 11.9127 2.40199 12.5514 1.91179C13.1901 1.42159 13.8608 1.18459 14.5635 1.20099C14.8509 1.20099 15.0345 1.42159 15.1144 1.86269C15.1942 2.28759 15.2341 2.76139 15.2341 3.28429C15.2341 3.80719 15.2022 4.31369 15.1383 4.80389C15.0745 5.27779 14.9946 5.83329 14.8988 6.47059C14.819 7.09149 14.7231 7.76139 14.6114 8.48039C14.1962 11.4379 13.9966 13.4886 14.0125 14.6324Z" fill="white"/>
<path d="M20.466 7.37744C21.0409 7.37744 21.5838 7.94114 22.0948 9.06854C22.8454 8.26794 23.7717 7.86754 24.8735 7.86754C25.9913 7.86754 26.8296 8.12084 27.3885 8.62734C27.9474 9.11754 28.2268 9.82024 28.2268 10.7352C28.2268 11.6339 28.1072 12.5489 27.8675 13.4803C27.644 14.4117 27.4764 15.0816 27.3646 15.4901C27.2688 15.8823 27.2209 16.2091 27.2209 16.4705C27.2209 16.7319 27.3086 16.8626 27.4843 16.8626C27.7238 16.8626 28.0192 16.7074 28.3705 16.397C28.7219 16.0865 29.0732 15.7515 29.4245 15.3921C29.7758 15.0162 30.0952 14.6731 30.3826 14.3626C30.686 14.0522 30.8937 13.897 31.0055 13.897C31.229 13.897 31.3408 14.1747 31.3408 14.7303C31.3408 15.8741 30.7898 16.977 29.688 18.0391C27.8356 19.1502 26.654 19.7058 26.143 19.7058C26.0951 19.7058 26.0631 19.6976 26.0471 19.6813C24.7696 19.6813 24.131 18.6355 24.131 16.544C24.131 15.6453 24.2107 14.8202 24.3704 14.0685C24.546 13.3169 24.6739 12.7695 24.7537 12.4264C24.8336 12.0832 24.8735 11.7319 24.8735 11.3724C24.8735 10.7842 24.5382 10.4901 23.8675 10.4901C23.2128 10.4901 22.582 10.9966 21.9752 12.0097C21.3843 13.0064 20.9851 14.044 20.7775 15.1224V15.294C20.7775 15.8496 20.8574 16.4215 21.0171 17.0097C21.1927 17.5979 21.2804 18.0064 21.2804 18.2352C21.2804 18.7907 20.6018 19.3381 19.2444 19.8774C19.0368 19.9591 18.8533 19.9999 18.6936 19.9999C18.2944 19.9999 18.0149 19.7875 17.8553 19.3626C17.7115 18.9378 17.6396 18.276 17.6396 17.3774C17.6396 15.0571 17.7274 13.3823 17.9031 12.3528C18.1426 10.8169 18.6856 9.38724 19.532 8.06364C19.8194 7.60614 20.1307 7.37744 20.466 7.37744Z" fill="white"/>
<path d="M33.0193 19.6814C31.4224 19.6814 30.624 18.1536 30.624 15.098C30.624 13.4314 30.8236 11.9199 31.2228 10.5637C31.8456 8.4722 32.5482 7.4265 33.3307 7.4265C33.7937 7.4265 34.161 7.7451 34.4325 8.3824C34.6561 8.8725 34.7598 9.3546 34.7439 9.8284C34.7439 10.482 34.5523 11.634 34.169 13.2843C33.8017 14.7222 33.6181 15.6127 33.6181 15.9559C33.6181 16.299 33.6979 16.5359 33.8576 16.6667C34.0333 16.7974 34.2329 16.8627 34.4564 16.8627C34.696 16.8627 34.9914 16.7075 35.3427 16.3971C35.694 16.0866 36.0453 15.7516 36.3966 15.3922C36.748 15.0163 37.0673 14.6732 37.3548 14.3627C37.6582 14.0523 37.8658 13.8971 37.9775 13.8971C38.2011 13.8971 38.3129 14.1748 38.3129 14.7304C38.3129 15.8742 37.746 16.9935 36.6122 18.0882C35.4944 19.1667 34.2968 19.6977 33.0193 19.6814ZM34.0013 5.4412C33.5702 4.7876 33.3546 4.085 33.3546 3.3333C33.3546 2.5817 33.4664 1.9608 33.6899 1.4706C33.9295 0.9641 34.153 0.596399 34.3606 0.367599C34.5682 0.122499 34.8078 0 35.0792 0C35.5263 0 35.9335 0.3431 36.3008 1.0294C36.6681 1.6993 36.8517 2.2631 36.8517 2.7206C36.8517 3.5703 36.5563 4.2402 35.9655 4.7304C35.3906 5.2042 34.7359 5.4412 34.0013 5.4412Z" fill="white"/>
<path d="M49.1408 15.6373C49.556 15.3268 49.9313 14.951 50.2666 14.5098C50.602 14.0523 50.8814 13.8235 51.105 13.8235C51.3445 13.8235 51.4643 14.183 51.4643 14.902C51.4643 15.6046 51.2647 16.2745 50.8655 16.9118C50.4822 17.5327 49.9712 18.0556 49.3325 18.4804C48.023 19.3627 46.4741 19.8039 44.6856 19.8039C42.5138 19.8039 40.8291 19.2484 39.6315 18.1373C38.4338 17.0261 37.835 15.482 37.835 13.5049C37.835 11.0703 38.4099 8.75817 39.5596 6.56857C39.9429 5.84967 40.374 5.18787 40.8531 4.58327C40.4858 4.14217 40.1904 3.68457 39.9668 3.21077C39.7592 2.72057 39.6554 2.35287 39.6554 2.10777C39.6554 1.66667 39.8151 1.44607 40.1345 1.44607C40.3581 1.46237 40.6136 1.61757 40.901 1.91177L41.6435 2.64707C41.8352 2.84307 42.0348 3.00647 42.2424 3.13727C43.8233 1.76467 45.5239 1.07837 47.3444 1.07837C49.1808 1.07837 50.3704 1.60127 50.9134 2.64707C51.105 3.03917 51.2008 3.52117 51.2008 4.09307C51.2008 4.95917 50.8335 5.68627 50.099 6.27447C49.3644 6.86267 48.3743 7.15687 47.1288 7.15687C45.8992 7.15687 44.6217 6.89537 43.2963 6.37247C42.1625 8.34967 41.5956 10.4167 41.5956 12.5735C41.5956 15.5637 42.7613 17.0588 45.0928 17.0588C46.53 17.0588 47.8793 16.585 49.1408 15.6373ZM44.446 4.85287C45.2604 5.13067 46.1467 5.26957 47.1048 5.26957C48.063 5.26957 48.542 4.99997 48.542 4.46077C48.542 3.82347 48.1508 3.50487 47.3683 3.50487C46.2984 3.50487 45.3243 3.95417 44.446 4.85287Z" fill="white"/>
<path d="M55.604 19.6815C53.3205 19.6978 51.7636 18.8236 50.9332 17.0589C50.6458 16.438 50.502 15.6619 50.502 14.7305C50.502 13.7828 50.5819 12.7779 50.7416 11.7158C51.061 9.59155 51.6757 7.63075 52.586 5.83335C53.0491 4.91835 53.568 4.13405 54.1429 3.48045C55.4044 2.04255 56.8097 1.33175 58.3586 1.34805C59.0453 1.34805 59.5802 1.54415 59.9634 1.93635C60.3626 2.31215 60.5622 2.85955 60.5622 3.57845C60.5622 4.29745 60.3547 5.02455 59.9396 5.75985C59.5244 6.47885 58.9893 7.23045 58.3346 8.01475C57.6958 8.78275 56.9853 9.59155 56.2029 10.4413C55.4204 11.2909 54.6539 12.2142 53.9034 13.2109V14.1913C53.9034 15.1063 54.0949 15.7762 54.4782 16.2011C54.8614 16.6259 55.3085 16.8383 55.8195 16.8383C57.1928 16.8383 58.4065 16.1439 59.4604 14.755C59.8915 14.1831 60.219 13.8972 60.4426 13.8972C60.6661 13.8972 60.7778 14.1749 60.7778 14.7305C60.7778 15.286 60.6262 15.8579 60.3228 16.4462C60.0354 17.0181 59.6521 17.5491 59.173 18.0393C58.6939 18.5132 58.143 18.9053 57.5202 19.2158C56.8974 19.5262 56.2588 19.6815 55.604 19.6815ZM56.8975 6.51965C57.2329 6.09485 57.4963 5.71085 57.688 5.36765C57.8795 5.02455 57.9753 4.67325 57.9753 4.31375C57.9753 3.93795 57.8476 3.75005 57.5921 3.75005C57.0331 3.75005 56.4104 4.33825 55.7237 5.51475C55.053 6.69125 54.5501 8.23535 54.2148 10.1472C54.7577 9.29745 55.2527 8.58665 55.6999 8.01475C56.163 7.44285 56.5622 6.94445 56.8975 6.51965Z" fill="white"/>
<path d="M62.2361 19.6814C60.6393 19.6814 59.8408 18.1536 59.8408 15.098C59.8408 13.4314 60.0404 11.9199 60.4397 10.5637C61.0624 8.4722 61.7651 7.4265 62.5475 7.4265C63.0106 7.4265 63.3779 7.7451 63.6494 8.3824C63.8729 8.8725 63.9767 9.3546 63.9608 9.8284C63.9608 10.482 63.7691 11.634 63.3859 13.2843C63.0186 14.7222 62.835 15.6127 62.835 15.9559C62.835 16.299 62.9148 16.5359 63.0745 16.6667C63.2502 16.7974 63.4498 16.8627 63.6733 16.8627C63.9129 16.8627 64.2083 16.7075 64.5596 16.3971C64.9109 16.0866 65.2622 15.7516 65.6135 15.3922C65.9648 15.0163 66.2842 14.6732 66.5716 14.3627C66.875 14.0523 67.0826 13.8971 67.1944 13.8971C67.418 13.8971 67.5298 14.1748 67.5298 14.7304C67.5298 15.8742 66.9629 16.9935 65.8291 18.0882C64.7113 19.1667 63.5136 19.6977 62.2361 19.6814ZM63.2182 5.4412C62.7871 4.7876 62.5715 4.085 62.5715 3.3333C62.5715 2.5817 62.6833 1.9608 62.9068 1.4706C63.1463 0.9641 63.3699 0.596399 63.5775 0.367599C63.7851 0.122499 64.0246 0 64.2961 0C64.7432 0 65.1504 0.3431 65.5177 1.0294C65.885 1.6993 66.0686 2.2631 66.0686 2.7206C66.0686 3.5703 65.7732 4.2402 65.1824 4.7304C64.6075 5.2042 63.9528 5.4412 63.2182 5.4412Z" fill="white"/>
<path d="M71.9133 16.9363C73.1589 16.9363 74.3645 16.4297 75.5303 15.4167C75.9614 15.0408 76.3131 14.6977 76.5841 14.3873C76.8561 14.0605 77.0631 13.8971 77.2071 13.8971C77.4301 13.8971 77.5421 14.1258 77.5421 14.5833C77.5421 15.0408 77.4221 15.5556 77.1831 16.1275C76.9431 16.683 76.5441 17.2304 75.9854 17.7696C74.6121 19.0931 72.7278 19.7549 70.3324 19.7549C68.4322 19.7549 67.1387 19.0523 66.4521 17.6471C66.2125 17.1569 66.0928 16.4542 66.0928 15.5392C66.0928 14.6242 66.2684 13.6765 66.6197 12.6961C66.971 11.6993 67.4341 10.8415 68.009 10.1225C68.5998 9.40364 69.2785 8.84804 70.045 8.45594C70.8115 8.04744 71.6259 7.84314 72.4882 7.84314C73.3665 7.84314 74.0372 8.06374 74.5003 8.50494C74.9793 8.94614 75.2189 9.51804 75.2189 10.2206C75.2189 10.9232 75.0432 11.5033 74.6919 11.9608C74.3566 12.402 73.9174 12.7778 73.3745 13.0882C72.8315 13.3824 72.2247 13.652 71.554 13.8971C70.8993 14.1258 70.2526 14.3873 69.6139 14.6814V15.2941C69.6298 15.8824 69.8694 16.299 70.3324 16.5441C70.7955 16.7892 71.3225 16.9199 71.9133 16.9363ZM71.5061 10.0245C70.6758 10.0245 70.1009 11.0131 69.7815 12.9902C70.1169 12.7614 70.4283 12.5572 70.7157 12.3775C71.0191 12.1977 71.2826 12.0261 71.5061 11.8627C71.9852 11.5033 72.2327 11.0948 72.2487 10.6373C72.2487 10.2288 72.0012 10.0245 71.5061 10.0245Z" fill="white"/>
<path d="M79.5301 7.37744C80.1041 7.37744 80.6471 7.94114 81.1581 9.06854C81.9091 8.26794 82.8351 7.86754 83.9371 7.86754C85.0551 7.86754 85.8931 8.12084 86.4521 8.62734C87.0111 9.11754 87.2901 9.82024 87.2901 10.7352C87.2901 11.6339 87.1711 12.5489 86.9311 13.4803C86.7081 14.4117 86.5401 15.0816 86.4281 15.4901C86.3321 15.8823 86.2841 16.2091 86.2841 16.4705C86.2841 16.7319 86.3721 16.8626 86.5481 16.8626C86.7871 16.8626 87.0831 16.7074 87.4341 16.397C87.7851 16.0865 88.1371 15.7515 88.4881 15.3921C88.8391 15.0162 89.1591 14.6731 89.4461 14.3626C89.7501 14.0522 89.9571 13.897 90.0691 13.897C90.2921 13.897 90.4041 14.1747 90.4041 14.7303C90.4041 15.8741 89.8531 16.977 88.7521 18.0391C86.8991 19.1502 85.7171 19.7058 85.2061 19.7058C85.1591 19.7058 85.1271 19.6976 85.1111 19.6813C83.8331 19.6813 83.1941 18.6355 83.1941 16.544C83.1941 15.6453 83.2741 14.8202 83.4341 14.0685C83.6101 13.3169 83.7371 12.7695 83.8171 12.4264C83.8971 12.0832 83.9371 11.7319 83.9371 11.3724C83.9371 10.7842 83.6021 10.4901 82.9311 10.4901C82.2761 10.4901 81.6451 10.9966 81.0391 12.0097C80.4481 13.0064 80.0491 14.044 79.8411 15.1224V15.294C79.8411 15.8496 79.9211 16.4215 80.0801 17.0097C80.2561 17.5979 80.3441 18.0064 80.3441 18.2352C80.3441 18.7907 79.6651 19.3381 78.3081 19.8774C78.1001 19.9591 77.9171 19.9999 77.7571 19.9999C77.3581 19.9999 77.0781 19.7875 76.9191 19.3626C76.7751 18.9378 76.7031 18.276 76.7031 17.3774C76.7031 15.0571 76.7911 13.3823 76.9671 12.3528C77.2061 10.8169 77.7491 9.38724 78.5951 8.06364C78.8831 7.60614 79.1941 7.37744 79.5301 7.37744Z" fill="white"/>
<path d="M90.2627 18.2843C90.0877 17.8431 89.9597 17.3366 89.8797 16.7647C89.7997 16.1765 89.7597 15.3595 89.7597 14.3137C89.7597 13.268 89.9517 11.8546 90.3347 10.0735H89.2567C89.0657 10.0735 88.9697 9.99176 88.9697 9.82836C88.9697 9.43626 89.0017 9.11756 89.0657 8.87246C89.1447 8.61106 89.3207 8.31696 89.5917 7.99016H90.1667C90.3907 7.99016 90.6297 7.98196 90.8857 7.96566C91.6517 5.44926 92.4347 4.19116 93.2327 4.19116C93.8717 4.20746 94.3187 4.62416 94.5747 5.44116C94.6387 5.66986 94.7097 5.91496 94.7897 6.17646L93.8077 7.94116C94.9257 7.97386 95.6287 7.99016 95.9157 7.99016C96.2187 7.99016 96.3787 8.02286 96.3947 8.08816C96.4267 8.13726 96.4427 8.21896 96.4427 8.33326C96.4427 8.62746 96.3707 8.99506 96.2267 9.43626C96.0997 9.87736 95.9477 10.0899 95.7717 10.0735L93.3767 9.95096C93.0417 11.9444 92.8737 13.5948 92.8737 14.902C92.8737 16.2092 93.0577 16.8627 93.4247 16.8627C93.7277 16.8627 94.2787 16.6095 95.0777 16.1029C95.8757 15.5801 96.4507 15.0817 96.8017 14.6078C97.1537 14.134 97.4407 13.8971 97.6647 13.8971C97.8877 13.8971 97.9997 14.1748 97.9997 14.7304C97.9997 15.2859 97.8077 15.8578 97.4247 16.4461C97.0417 17.018 96.5547 17.549 95.9637 18.0392C95.3887 18.5131 94.7417 18.9052 94.0237 19.2157C93.3207 19.5261 92.7057 19.6814 92.1787 19.6814C91.6517 19.6814 91.2447 19.5588 90.9577 19.3137C90.6857 19.0523 90.4547 18.7092 90.2627 18.2843Z" fill="white"/>
</svg>
